<svg width="85" height="33" viewBox="0 0 85 33" fill="none" xmlns="http://www.w3.org/2000/svg">
<path d="M24.558 8.47227C24.913 8.47227 25.162 8.82227 25.048 9.15727L17.342 31.6163C17.2487 31.8882 17.0727 32.1242 16.8388 32.2913C16.6048 32.4584 16.3245 32.5482 16.037 32.5483H9.23C8.94237 32.5481 8.66198 32.4581 8.428 32.2909C8.19402 32.1236 8.01816 31.8874 7.925 31.6153L0.234997 9.15727C0.208245 9.07941 0.200473 8.99628 0.212328 8.91482C0.224184 8.83335 0.255324 8.75589 0.303157 8.68888C0.35099 8.62188 0.414133 8.56726 0.487332 8.52959C0.560531 8.49191 0.64167 8.47226 0.723997 8.47227H7.543C7.69488 8.47241 7.84248 8.52266 7.96289 8.61523C8.08331 8.7078 8.16981 8.83752 8.209 8.98427L12.508 25.0553H12.758L17.073 8.98327C17.1126 8.83689 17.1992 8.70762 17.3196 8.61544C17.44 8.52326 17.5874 8.47329 17.739 8.47327H24.558V8.47227ZM27.007 32.5483C26.824 32.5483 26.6485 32.4756 26.5191 32.3462C26.3897 32.2168 26.317 32.0413 26.317 31.8583V9.16227C26.317 8.78227 26.627 8.47227 27.007 8.47227H33.292C33.673 8.47227 33.982 8.78227 33.982 9.16227V31.8583C33.982 32.0413 33.9093 32.2168 33.7799 32.3462C33.6505 32.4756 33.475 32.5483 33.292 32.5483H27.007ZM49.857 8.47227C50.237 8.47227 50.547 8.78227 50.547 9.16227V13.4253C50.547 13.6083 50.4743 13.7838 50.3449 13.9132C50.2155 14.0426 50.04 14.1153 49.857 14.1153H36.048C35.865 14.1153 35.6895 14.0426 35.5601 13.9132C35.4307 13.7838 35.358 13.6083 35.358 13.4253V9.16227C35.358 8.78227 35.668 8.47227 36.048 8.47227H49.857ZM38.54 3.39427C38.54 3.01427 38.85 2.70427 39.23 2.70427H45.515C45.896 2.70427 46.205 3.01427 46.205 3.39427V24.9773C46.205 25.4473 46.278 25.8293 46.425 26.1213C46.581 26.4033 46.805 26.6073 47.098 26.7323C47.391 26.8483 47.741 26.9053 48.148 26.9053C48.5351 26.903 48.921 26.8621 49.3 26.7833C49.439 26.7553 49.5834 26.7828 49.7023 26.86C49.8211 26.9372 49.9051 27.0579 49.936 27.1963L50.854 31.5753C50.8908 31.745 50.8604 31.9224 50.7692 32.0703C50.6781 32.2181 50.5332 32.3249 50.365 32.3683C50.097 32.4373 49.786 32.5123 49.434 32.5953C48.775 32.7513 47.987 32.8513 47.067 32.8923C45.27 32.9763 43.728 32.7673 42.443 32.2653C41.168 31.7533 40.191 30.9593 39.513 29.8833C38.843 28.8073 38.519 27.4533 38.54 25.8233V3.39527V3.39427ZM60.657 32.8923C58.881 32.8923 57.267 32.4323 55.814 31.5133C54.361 30.5933 53.202 29.2143 52.334 27.3753C51.467 25.5363 51.034 23.2533 51.034 20.5253C51.034 17.6943 51.483 15.3643 52.381 13.5353C53.28 11.7063 54.456 10.3533 55.908 9.47527C57.329 8.60944 58.962 8.15394 60.626 8.15927C61.89 8.15927 62.972 8.37927 63.87 8.81727C64.769 9.24627 65.51 9.79927 66.096 10.4793C66.681 11.1583 67.126 11.8633 67.428 12.5953H67.585V9.16227C67.585 8.78227 67.894 8.47227 68.275 8.47227H74.56C74.94 8.47227 75.25 8.78227 75.25 9.16227V31.8583C75.25 32.0413 75.1773 32.2168 75.0479 32.3462C74.9185 32.4756 74.743 32.5483 74.56 32.5483H68.353C68.17 32.5483 67.9945 32.4756 67.8651 32.3462C67.7357 32.2168 67.663 32.0413 67.663 31.8583V28.6453H67.428C67.0876 29.4119 66.6215 30.1163 66.049 30.7293C65.453 31.3773 64.706 31.8993 63.808 32.2973C62.919 32.6943 61.869 32.8923 60.658 32.8923H60.657ZM63.322 26.9213C64.252 26.9213 65.046 26.6593 65.704 26.1373C66.363 25.6043 66.869 24.8573 67.224 23.8963C67.58 22.9343 67.757 21.8063 67.757 20.5103C67.757 19.1933 67.58 18.0603 67.225 17.1093C66.88 16.1583 66.373 15.4263 65.705 14.9143C65.045 14.4023 64.252 14.1463 63.322 14.1463C62.371 14.1463 61.566 14.4083 60.908 14.9303C60.25 15.4533 59.748 16.1903 59.403 17.1403C59.069 18.0913 58.902 19.2143 58.902 20.5103C58.902 21.8063 59.074 22.9343 59.419 23.8963C59.764 24.8563 60.26 25.6043 60.908 26.1363C61.566 26.6593 62.371 26.9213 63.322 26.9213ZM83.789 0.447266C84.169 0.447266 84.479 0.756266 84.479 1.13727V31.8573C84.479 32.0403 84.4063 32.2158 84.2769 32.3452C84.1475 32.4746 83.972 32.5473 83.789 32.5473H77.504C77.321 32.5473 77.1455 32.4746 77.0161 32.3452C76.8867 32.2158 76.814 32.0403 76.814 31.8573V1.13827C76.814 0.758266 77.123 0.448266 77.504 0.448266H83.789V0.447266Z" fill="#1A1A1A"/>
</svg>
